<mxfile host="app.diagrams.net" modified="2021-06-05T09:32:14.581Z" agent="5.0 (Windows NT 10.0; Win64; x64) AppleWebKit/537.36 (KHTML, like Gecko) Chrome/88.0.4324.182 Safari/537.36" etag="4GKo-gjUkvcoIq74T8TF" version="14.7.6" type="github">
  <diagram id="i7F4d9SeIyKXNo-4NK8w" name="Page-1">
    <mxGraphModel dx="1227" dy="745" grid="1" gridSize="10" guides="1" tooltips="1" connect="1" arrows="1" fold="1" page="1" pageScale="1" pageWidth="3300" pageHeight="4681" math="0" shadow="0">
      <root>
        <mxCell id="0" />
        <mxCell id="1" parent="0" />
        <mxCell id="9se4feB8pJueyWmXXOum-7" value="" style="edgeStyle=orthogonalEdgeStyle;rounded=0;orthogonalLoop=1;jettySize=auto;html=1;" edge="1" parent="1" source="9se4feB8pJueyWmXXOum-1" target="9se4feB8pJueyWmXXOum-2">
          <mxGeometry relative="1" as="geometry" />
        </mxCell>
        <mxCell id="9se4feB8pJueyWmXXOum-1" value="FUNCTION print_title(title)" style="shape=process;whiteSpace=wrap;html=1;backgroundOutline=1;" vertex="1" parent="1">
          <mxGeometry x="400" y="120" width="240" height="70" as="geometry" />
        </mxCell>
        <mxCell id="9se4feB8pJueyWmXXOum-6" value="" style="edgeStyle=orthogonalEdgeStyle;rounded=0;orthogonalLoop=1;jettySize=auto;html=1;" edge="1" parent="1" source="9se4feB8pJueyWmXXOum-2" target="9se4feB8pJueyWmXXOum-3">
          <mxGeometry relative="1" as="geometry" />
        </mxCell>
        <mxCell id="9se4feB8pJueyWmXXOum-2" value="PRINT(&quot;================================================================&quot;)" style="rounded=1;whiteSpace=wrap;html=1;" vertex="1" parent="1">
          <mxGeometry x="252.5" y="250" width="535" height="40" as="geometry" />
        </mxCell>
        <mxCell id="9se4feB8pJueyWmXXOum-5" value="" style="edgeStyle=orthogonalEdgeStyle;rounded=0;orthogonalLoop=1;jettySize=auto;html=1;" edge="1" parent="1" source="9se4feB8pJueyWmXXOum-3" target="9se4feB8pJueyWmXXOum-4">
          <mxGeometry relative="1" as="geometry" />
        </mxCell>
        <mxCell id="9se4feB8pJueyWmXXOum-3" value="PRINT(&quot; &quot; * int((64-LEN(title))/2) + title)" style="rounded=1;whiteSpace=wrap;html=1;" vertex="1" parent="1">
          <mxGeometry x="252.5" y="340" width="535" height="40" as="geometry" />
        </mxCell>
        <mxCell id="9se4feB8pJueyWmXXOum-4" value="PRINT(&quot;================================================================&quot;)" style="rounded=1;whiteSpace=wrap;html=1;" vertex="1" parent="1">
          <mxGeometry x="252.5" y="450" width="535" height="40" as="geometry" />
        </mxCell>
      </root>
    </mxGraphModel>
  </diagram>
</mxfile>
